<?xml version="1.0" encoding="UTF-8" standalone="no"?>
<!-- Created with Inkscape (http://www.inkscape.org/) -->

<svg
   width="150mm"
   height="150mm"
   viewBox="0 0 150 150"
   version="1.1"
   id="svg1"
   inkscape:version="1.3.1 (9b9bdc1480, 2023-11-25, custom)"
   sodipodi:docname="logo.svg"
   xmlns:inkscape="http://www.inkscape.org/namespaces/inkscape"
   xmlns:sodipodi="http://sodipodi.sourceforge.net/DTD/sodipodi-0.dtd"
   xmlns="http://www.w3.org/2000/svg"
   xmlns:svg="http://www.w3.org/2000/svg">
  <sodipodi:namedview
     id="namedview1"
     pagecolor="#ffffff"
     bordercolor="#000000"
     borderopacity="0.25"
     inkscape:showpageshadow="2"
     inkscape:pageopacity="0.0"
     inkscape:pagecheckerboard="0"
     inkscape:deskcolor="#d1d1d1"
     inkscape:document-units="mm"
     inkscape:zoom="0.7997102"
     inkscape:cx="272.59875"
     inkscape:cy="280.72669"
     inkscape:window-width="1600"
     inkscape:window-height="831"
     inkscape:window-x="0"
     inkscape:window-y="0"
     inkscape:window-maximized="1"
     inkscape:current-layer="layer1" />
  <defs
     id="defs1">
    <inkscape:path-effect
       effect="fillet_chamfer"
       id="path-effect7"
       is_visible="true"
       lpeversion="1"
       nodesatellites_param="F,0,0,1,0,10.583333,0,1 @ F,0,0,1,0,10.583333,0,1 @ F,0,0,1,0,10.583333,0,1 @ F,0,0,1,0,10.583333,0,1"
       radius="40"
       unit="px"
       method="auto"
       mode="F"
       chamfer_steps="1"
       flexible="false"
       use_knot_distance="true"
       apply_no_radius="true"
       apply_with_radius="true"
       only_selected="false"
       hide_knots="false" />
    <inkscape:path-effect
       effect="fillet_chamfer"
       id="path-effect4"
       is_visible="true"
       lpeversion="1"
       nodesatellites_param="F,0,0,1,0,3.4395833,0,1 @ F,0,0,1,0,3.4395833,0,1 @ F,0,0,1,0,3.4395833,0,1 @ F,0,0,1,0,3.4395833,0,1"
       radius="13"
       unit="px"
       method="auto"
       mode="F"
       chamfer_steps="1"
       flexible="false"
       use_knot_distance="true"
       apply_no_radius="true"
       apply_with_radius="true"
       only_selected="false"
       hide_knots="false" />
    <inkscape:path-effect
       effect="fillet_chamfer"
       id="path-effect2"
       is_visible="true"
       lpeversion="1"
       nodesatellites_param="F,0,0,1,0,3.4395833,0,1 @ F,0,0,1,0,3.4395833,0,1 @ F,0,0,1,0,3.4395833,0,1 @ F,0,0,1,0,3.4395833,0,1"
       radius="13"
       unit="px"
       method="auto"
       mode="F"
       chamfer_steps="1"
       flexible="false"
       use_knot_distance="true"
       apply_no_radius="true"
       apply_with_radius="true"
       only_selected="false"
       hide_knots="false" />
    <inkscape:path-effect
       effect="fillet_chamfer"
       id="path-effect2-6"
       is_visible="true"
       lpeversion="1"
       nodesatellites_param="F,0,0,1,0,3.4395833,0,1 @ F,0,0,1,0,3.4395833,0,1 @ F,0,0,1,0,3.4395833,0,1 @ F,0,0,1,0,3.4395833,0,1"
       radius="13"
       unit="px"
       method="auto"
       mode="F"
       chamfer_steps="1"
       flexible="false"
       use_knot_distance="true"
       apply_no_radius="true"
       apply_with_radius="true"
       only_selected="false"
       hide_knots="false" />
    <inkscape:path-effect
       effect="fillet_chamfer"
       id="path-effect2-7"
       is_visible="true"
       lpeversion="1"
       nodesatellites_param="F,0,0,1,0,3.4395833,0,1 @ F,0,0,1,0,3.4395833,0,1 @ F,0,0,1,0,3.4395833,0,1 @ F,0,0,1,0,3.4395833,0,1"
       radius="13"
       unit="px"
       method="auto"
       mode="F"
       chamfer_steps="1"
       flexible="false"
       use_knot_distance="true"
       apply_no_radius="true"
       apply_with_radius="true"
       only_selected="false"
       hide_knots="false" />
    <filter
       inkscape:collect="always"
       style="color-interpolation-filters:sRGB"
       id="filter4"
       x="-0.03099234"
       y="-0.046128315"
       width="1.0619847"
       height="1.0922566">
      <feGaussianBlur
         inkscape:collect="always"
         stdDeviation="0.73782467"
         id="feGaussianBlur4" />
    </filter>
    <inkscape:path-effect
       effect="fillet_chamfer"
       id="path-effect2-6-6"
       is_visible="true"
       lpeversion="1"
       nodesatellites_param="F,0,0,1,0,3.4395833,0,1 @ F,0,0,1,0,3.4395833,0,1 @ F,0,0,1,0,3.4395833,0,1 @ F,0,0,1,0,3.4395833,0,1"
       radius="13"
       unit="px"
       method="auto"
       mode="F"
       chamfer_steps="1"
       flexible="false"
       use_knot_distance="true"
       apply_no_radius="true"
       apply_with_radius="true"
       only_selected="false"
       hide_knots="false" />
    <filter
       inkscape:collect="always"
       style="color-interpolation-filters:sRGB"
       id="filter4-2"
       x="-0.03099234"
       y="-0.046128315"
       width="1.0619847"
       height="1.0922566">
      <feGaussianBlur
         inkscape:collect="always"
         stdDeviation="0.73782467"
         id="feGaussianBlur4-6" />
    </filter>
    <inkscape:path-effect
       effect="fillet_chamfer"
       id="path-effect2-7-1"
       is_visible="true"
       lpeversion="1"
       nodesatellites_param="F,0,0,1,0,3.4395833,0,1 @ F,0,0,1,0,3.4395833,0,1 @ F,0,0,1,0,3.4395833,0,1 @ F,0,0,1,0,3.4395833,0,1"
       radius="13"
       unit="px"
       method="auto"
       mode="F"
       chamfer_steps="1"
       flexible="false"
       use_knot_distance="true"
       apply_no_radius="true"
       apply_with_radius="true"
       only_selected="false"
       hide_knots="false" />
    <inkscape:path-effect
       effect="fillet_chamfer"
       id="path-effect2-8"
       is_visible="true"
       lpeversion="1"
       nodesatellites_param="F,0,0,1,0,3.4395833,0,1 @ F,0,0,1,0,3.4395833,0,1 @ F,0,0,1,0,3.4395833,0,1 @ F,0,0,1,0,3.4395833,0,1"
       radius="13"
       unit="px"
       method="auto"
       mode="F"
       chamfer_steps="1"
       flexible="false"
       use_knot_distance="true"
       apply_no_radius="true"
       apply_with_radius="true"
       only_selected="false"
       hide_knots="false" />
    <inkscape:path-effect
       effect="fillet_chamfer"
       id="path-effect2-6-5"
       is_visible="true"
       lpeversion="1"
       nodesatellites_param="F,0,0,1,0,3.4395833,0,1 @ F,0,0,1,0,3.4395833,0,1 @ F,0,0,1,0,3.4395833,0,1 @ F,0,0,1,0,3.4395833,0,1"
       radius="13"
       unit="px"
       method="auto"
       mode="F"
       chamfer_steps="1"
       flexible="false"
       use_knot_distance="true"
       apply_no_radius="true"
       apply_with_radius="true"
       only_selected="false"
       hide_knots="false" />
    <filter
       inkscape:collect="always"
       style="color-interpolation-filters:sRGB"
       id="filter4-9"
       x="-0.03099234"
       y="-0.046128315"
       width="1.0619847"
       height="1.0922566">
      <feGaussianBlur
         inkscape:collect="always"
         stdDeviation="0.73782467"
         id="feGaussianBlur4-2" />
    </filter>
    <inkscape:path-effect
       effect="fillet_chamfer"
       id="path-effect2-7-2"
       is_visible="true"
       lpeversion="1"
       nodesatellites_param="F,0,0,1,0,3.4395833,0,1 @ F,0,0,1,0,3.4395833,0,1 @ F,0,0,1,0,3.4395833,0,1 @ F,0,0,1,0,3.4395833,0,1"
       radius="13"
       unit="px"
       method="auto"
       mode="F"
       chamfer_steps="1"
       flexible="false"
       use_knot_distance="true"
       apply_no_radius="true"
       apply_with_radius="true"
       only_selected="false"
       hide_knots="false" />
    <inkscape:path-effect
       effect="fillet_chamfer"
       id="path-effect2-89"
       is_visible="true"
       lpeversion="1"
       nodesatellites_param="F,0,0,1,0,3.4395833,0,1 @ F,0,0,1,0,3.4395833,0,1 @ F,0,0,1,0,3.4395833,0,1 @ F,0,0,1,0,3.4395833,0,1"
       radius="13"
       unit="px"
       method="auto"
       mode="F"
       chamfer_steps="1"
       flexible="false"
       use_knot_distance="true"
       apply_no_radius="true"
       apply_with_radius="true"
       only_selected="false"
       hide_knots="false" />
  </defs>
  <g
     inkscape:label="Layer 1"
     inkscape:groupmode="layer"
     id="layer1"
     transform="translate(-30.544653,-74.948669)">
    <path
       style="fill:#00002d;fill-opacity:1;stroke-width:63.989"
       id="rect1"
       width="150"
       height="150"
       x="30.510937"
       y="75.26767"
       inkscape:path-effect="#path-effect7"
       sodipodi:type="rect"
       d="M 41.09427,75.26767 H 169.9276 a 10.583333,10.583333 45 0 1 10.58334,10.583333 V 214.68434 A 10.583333,10.583333 135 0 1 169.9276,225.26767 H 41.09427 A 10.583333,10.583333 45 0 1 30.510937,214.68434 V 85.851003 A 10.583333,10.583333 135 0 1 41.09427,75.26767 Z" />
    <g
       id="g7"
       transform="matrix(0.75960725,0,0,0.75960725,23.155078,41.810911)">
      <g
         id="g5"
         transform="translate(26.827203,3.5281946)">
        <path
           style="fill:#c2ff7f;fill-opacity:1;stroke-width:48.7512"
           id="rect2-9"
           width="57.136028"
           height="38.388119"
           x="73.42263"
           y="126.25846"
           sodipodi:type="rect"
           d="m 76.862214,126.25846 h 50.256866 a 3.4395833,3.4395833 45 0 1 3.43958,3.43958 V 161.207 a 3.4395833,3.4395833 135 0 1 -3.43958,3.43958 H 76.862214 A 3.4395833,3.4395833 45 0 1 73.42263,161.207 v -31.50896 a 3.4395833,3.4395833 135 0 1 3.439584,-3.43958 z"
           inkscape:path-effect="#path-effect2-6"
           transform="matrix(0.99988875,-0.00275919,0.04169843,0.99999619,-6.7030396,-1.6774308)" />
        <path
           style="opacity:0.545269;fill:#000000;fill-opacity:1;stroke-width:48.7512;filter:url(#filter4)"
           id="rect2-93"
           width="57.136028"
           height="38.388119"
           x="73.42263"
           y="126.25846"
           sodipodi:type="rect"
           d="m 76.862214,126.25846 h 50.256866 a 3.4395833,3.4395833 45 0 1 3.43958,3.43958 V 161.207 a 3.4395833,3.4395833 135 0 1 -3.43958,3.43958 H 76.862214 A 3.4395833,3.4395833 45 0 1 73.42263,161.207 v -31.50896 a 3.4395833,3.4395833 135 0 1 3.439584,-3.43958 z"
           inkscape:path-effect="#path-effect2-7"
           transform="matrix(1.0117004,0,0,0.95899771,-1.5828472,4.3250241)" />
        <path
           style="fill:#c2ff7f;fill-opacity:1;stroke-width:48.7512"
           id="rect2"
           width="57.136028"
           height="38.388119"
           x="73.42263"
           y="126.25846"
           sodipodi:type="rect"
           d="m 76.862214,126.25846 h 50.256866 a 3.4395833,3.4395833 45 0 1 3.43958,3.43958 V 161.207 a 3.4395833,3.4395833 135 0 1 -3.43958,3.43958 H 76.862214 A 3.4395833,3.4395833 45 0 1 73.42263,161.207 v -31.50896 a 3.4395833,3.4395833 135 0 1 3.439584,-3.43958 z"
           inkscape:path-effect="#path-effect2" />
        <path
           id="path2"
           style="fill:#7ddbff;fill-opacity:1;stroke-width:63.989"
           d="m 106.39325,126.25872 c 0.82748,0.88604 0.52348,0.60981 1.31407,1.28075 1.68131,1.42685 4.76309,1.4612 4.76309,1.4612 l 18.06287,0.13441 c -0.36441,-1.84655 -1.81645,-2.8453 -3.41415,-2.87639 z"
           sodipodi:nodetypes="cscccc" />
      </g>
      <g
         id="g4"
         transform="translate(-82.630834,1.5599014)">
        <path
           style="fill:#7ffff8;fill-opacity:1;stroke-width:48.7512"
           id="rect2-9-3"
           width="57.136028"
           height="38.388119"
           x="73.42263"
           y="126.25846"
           sodipodi:type="rect"
           d="m 76.862214,126.25846 h 50.256866 a 3.4395833,3.4395833 45 0 1 3.43958,3.43958 V 161.207 a 3.4395833,3.4395833 135 0 1 -3.43958,3.43958 H 76.862214 A 3.4395833,3.4395833 45 0 1 73.42263,161.207 v -31.50896 a 3.4395833,3.4395833 135 0 1 3.439584,-3.43958 z"
           inkscape:path-effect="#path-effect2-6-5"
           transform="matrix(0.99988875,-0.00275919,0.04169843,0.99999619,62.736336,11.739894)" />
        <path
           style="opacity:0.545269;fill:#000000;fill-opacity:1;stroke-width:48.7512;filter:url(#filter4-9)"
           id="rect2-93-6"
           width="57.136028"
           height="38.388119"
           x="73.42263"
           y="126.25846"
           sodipodi:type="rect"
           d="m 76.862214,126.25846 h 50.256866 a 3.4395833,3.4395833 45 0 1 3.43958,3.43958 V 161.207 a 3.4395833,3.4395833 135 0 1 -3.43958,3.43958 H 76.862214 A 3.4395833,3.4395833 45 0 1 73.42263,161.207 v -31.50896 a 3.4395833,3.4395833 135 0 1 3.439584,-3.43958 z"
           inkscape:path-effect="#path-effect2-7-2"
           transform="matrix(1.0117004,0,0,0.95899771,67.856529,17.742349)" />
        <path
           style="fill:#7ffff8;fill-opacity:1;stroke-width:48.7512"
           id="rect2-1"
           width="57.136028"
           height="38.388119"
           x="73.42263"
           y="126.25846"
           sodipodi:type="rect"
           d="m 76.862214,126.25846 h 50.256866 a 3.4395833,3.4395833 45 0 1 3.43958,3.43958 V 161.207 a 3.4395833,3.4395833 135 0 1 -3.43958,3.43958 H 76.862214 A 3.4395833,3.4395833 45 0 1 73.42263,161.207 v -31.50896 a 3.4395833,3.4395833 135 0 1 3.439584,-3.43958 z"
           inkscape:path-effect="#path-effect2-89"
           transform="translate(69.439376,13.417325)" />
        <path
           id="path2-29"
           style="fill:#f1a100;fill-opacity:1;stroke-width:63.989"
           d="m 175.83263,139.67604 c 0.82748,0.88604 0.52348,0.60981 1.31407,1.28075 1.68131,1.42685 4.76309,1.4612 4.76309,1.4612 l 18.06287,0.13441 c -0.36441,-1.84655 -1.81645,-2.8453 -3.41415,-2.87639 z"
           sodipodi:nodetypes="cscccc" />
      </g>
      <g
         id="g6"
         transform="translate(-2.5640798,29.538613)">
        <path
           style="fill:#ffa47f;fill-opacity:1;stroke-width:48.7512"
           id="rect2-9-9"
           width="57.136028"
           height="38.388119"
           x="73.42263"
           y="126.25846"
           sodipodi:type="rect"
           d="m 76.862214,126.25846 h 50.256866 a 3.4395833,3.4395833 45 0 1 3.43958,3.43958 V 161.207 a 3.4395833,3.4395833 135 0 1 -3.43958,3.43958 H 76.862214 A 3.4395833,3.4395833 45 0 1 73.42263,161.207 v -31.50896 a 3.4395833,3.4395833 135 0 1 3.439584,-3.43958 z"
           inkscape:path-effect="#path-effect2-6-6"
           transform="matrix(0.99988875,-0.00275919,0.04169843,0.99999619,-6.0187217,-48.988183)" />
        <path
           style="opacity:0.545269;fill:#000000;fill-opacity:1;stroke-width:48.7512;filter:url(#filter4-2)"
           id="rect2-93-2"
           width="57.136028"
           height="38.388119"
           x="73.42263"
           y="126.25846"
           sodipodi:type="rect"
           d="m 76.862214,126.25846 h 50.256866 a 3.4395833,3.4395833 45 0 1 3.43958,3.43958 V 161.207 a 3.4395833,3.4395833 135 0 1 -3.43958,3.43958 H 76.862214 A 3.4395833,3.4395833 45 0 1 73.42263,161.207 v -31.50896 a 3.4395833,3.4395833 135 0 1 3.439584,-3.43958 z"
           inkscape:path-effect="#path-effect2-7-1"
           transform="matrix(1.0117004,0,0,0.95899771,-0.89852873,-42.985728)" />
        <path
           style="fill:#ffa47f;fill-opacity:1;stroke-width:48.7512"
           id="rect2-0"
           width="57.136028"
           height="38.388119"
           x="73.42263"
           y="126.25846"
           sodipodi:type="rect"
           d="m 76.862214,126.25846 h 50.256866 a 3.4395833,3.4395833 45 0 1 3.43958,3.43958 V 161.207 a 3.4395833,3.4395833 135 0 1 -3.43958,3.43958 H 76.862214 A 3.4395833,3.4395833 45 0 1 73.42263,161.207 v -31.50896 a 3.4395833,3.4395833 135 0 1 3.439584,-3.43958 z"
           inkscape:path-effect="#path-effect2-8"
           transform="translate(0.68431827,-47.310752)" />
        <path
           id="path2-2"
           style="fill:#ff7fec;fill-opacity:1;stroke-width:63.989"
           d="m 107.07757,78.947966 c 0.82748,0.88604 0.52348,0.60981 1.31407,1.28075 1.68131,1.42685 4.76309,1.4612 4.76309,1.4612 l 18.06287,0.13441 c -0.36441,-1.84655 -1.81645,-2.8453 -3.41415,-2.87639 z"
           sodipodi:nodetypes="cscccc" />
      </g>
    </g>
  </g>
</svg>
